<?xml version="1.0" encoding="UTF-8"?>
<svg fill="#fff" width="25pt"  height="25pt" version="1.1" viewBox="0 0 700 700" xmlns="http://www.w3.org/2000/svg" xmlns:xlink="http://www.w3.org/1999/xlink">
 <defs>
  <symbol id="k" overflow="visible">
   <path d="m7.1875-0.4375c-0.36719 0.19922-0.75 0.34375-1.1562 0.4375-0.39844 0.10156-0.8125 0.15625-1.25 0.15625-1.3125 0-2.3516-0.36328-3.1094-1.0938-0.76172-0.72656-1.1406-1.7188-1.1406-2.9688s0.37891-2.2383 1.1406-2.9688c0.75781-0.72656 1.7969-1.0938 3.1094-1.0938 0.4375 0 0.85156 0.054688 1.25 0.15625 0.40625 0.09375 0.78906 0.23438 1.1562 0.42188v1.625c-0.375-0.25-0.74609-0.42969-1.1094-0.54688-0.35547-0.125-0.73438-0.1875-1.1406-0.1875-0.71875 0-1.2891 0.23047-1.7031 0.6875-0.40625 0.46094-0.60938 1.0938-0.60938 1.9062s0.20312 1.4492 0.60938 1.9062c0.41406 0.46094 0.98438 0.6875 1.7031 0.6875 0.40625 0 0.78516-0.054688 1.1406-0.17188 0.36328-0.125 0.73438-0.3125 1.1094-0.5625z"/>
  </symbol>
  <symbol id="c" overflow="visible">
   <path d="m5.2656-4.2656c-0.16797-0.082031-0.33594-0.14062-0.5-0.17188-0.15625-0.039062-0.32031-0.0625-0.48438-0.0625-0.48047 0-0.85156 0.15625-1.1094 0.46875-0.26172 0.3125-0.39062 0.75781-0.39062 1.3281v2.7031h-1.875v-5.875h1.875v0.96875c0.23828-0.38281 0.51562-0.66406 0.82812-0.84375 0.3125-0.17578 0.6875-0.26562 1.125-0.26562 0.0625 0 0.12891 0.007813 0.20312 0.015625 0.070312 0 0.17578 0.011719 0.3125 0.03125z"/>
  </symbol>
  <symbol id="a" overflow="visible">
   <path d="m6.7656-2.9531v0.53125h-4.3906c0.039062 0.44922 0.19531 0.78125 0.46875 1 0.28125 0.21875 0.66406 0.32812 1.1562 0.32812 0.39453 0 0.79688-0.054688 1.2031-0.17188 0.41406-0.125 0.84375-0.30078 1.2812-0.53125v1.4375c-0.44922 0.16797-0.89844 0.29297-1.3438 0.375-0.4375 0.09375-0.875 0.14062-1.3125 0.14062-1.0625 0-1.8906-0.26953-2.4844-0.8125-0.58594-0.53906-0.875-1.3008-0.875-2.2812 0-0.94531 0.28516-1.6953 0.85938-2.25 0.58203-0.55078 1.3789-0.82812 2.3906-0.82812 0.91406 0 1.6484 0.28125 2.2031 0.84375 0.5625 0.55469 0.84375 1.293 0.84375 2.2188zm-1.9375-0.625c0-0.35156-0.10547-0.64062-0.3125-0.85938-0.21094-0.21875-0.48047-0.32812-0.8125-0.32812-0.36719 0-0.66406 0.10547-0.89062 0.3125-0.21875 0.19922-0.35938 0.49219-0.42188 0.875z"/>
  </symbol>
  <symbol id="g" overflow="visible">
   <path d="m3.5312-2.6406c-0.38672 0-0.67969 0.070313-0.875 0.20312-0.19922 0.125-0.29688 0.32031-0.29688 0.57812 0 0.24219 0.078125 0.42969 0.23438 0.5625 0.15625 0.13672 0.375 0.20312 0.65625 0.20312 0.35156 0 0.64844-0.125 0.89062-0.375 0.23828-0.25781 0.35938-0.57812 0.35938-0.95312v-0.21875zm2.875-0.70312v3.3438h-1.9062v-0.875c-0.25 0.36719-0.53125 0.63281-0.84375 0.79688-0.3125 0.15625-0.69531 0.23438-1.1406 0.23438-0.61719 0-1.1094-0.17578-1.4844-0.53125-0.375-0.35156-0.5625-0.81641-0.5625-1.3906 0-0.6875 0.23438-1.1914 0.70312-1.5156 0.46875-0.32031 1.2109-0.48438 2.2344-0.48438h1.0938v-0.14062c0-0.28906-0.11719-0.50391-0.34375-0.64062-0.23047-0.14453-0.59375-0.21875-1.0938-0.21875-0.40625 0-0.78125 0.042969-1.125 0.125-0.34375 0.085937-0.66797 0.20312-0.96875 0.35938v-1.4375c0.40625-0.09375 0.8125-0.16406 1.2188-0.21875 0.40625-0.050781 0.8125-0.078125 1.2188-0.078125 1.0508 0 1.8125 0.21094 2.2812 0.625 0.47656 0.41797 0.71875 1.1016 0.71875 2.0469z"/>
  </symbol>
  <symbol id="b" overflow="visible">
   <path d="m2.9531-7.5312v1.6562h1.9375v1.3438h-1.9375v2.5c0 0.27344 0.050781 0.45312 0.15625 0.54688 0.11328 0.09375 0.33203 0.14062 0.65625 0.14062h0.95312v1.3438h-1.6094c-0.74219 0-1.2656-0.14844-1.5781-0.45312-0.30469-0.3125-0.45312-0.83594-0.45312-1.5781v-2.5h-0.9375v-1.3438h0.9375v-1.6562z"/>
  </symbol>
  <symbol id="o" overflow="visible">
   <path d="m4.8906-5.0156v-3.1406h1.8906v8.1562h-1.8906v-0.84375c-0.26172 0.34375-0.54688 0.60156-0.85938 0.76562-0.30469 0.15625-0.65625 0.23438-1.0625 0.23438-0.73047 0-1.3281-0.28516-1.7969-0.85938-0.46094-0.58203-0.6875-1.3281-0.6875-2.2344 0-0.89453 0.22656-1.6289 0.6875-2.2031 0.46875-0.58203 1.0664-0.875 1.7969-0.875 0.39453 0 0.75 0.085937 1.0625 0.25 0.3125 0.15625 0.59766 0.40625 0.85938 0.75zm-1.2344 3.8125c0.40625 0 0.71094-0.14453 0.92188-0.4375 0.20703-0.30078 0.3125-0.73438 0.3125-1.2969 0-0.55078-0.10547-0.97266-0.3125-1.2656-0.21094-0.30078-0.51562-0.45312-0.92188-0.45312-0.39844 0-0.70312 0.15234-0.92188 0.45312-0.21094 0.29297-0.3125 0.71484-0.3125 1.2656 0 0.5625 0.10156 0.99609 0.3125 1.2969 0.21875 0.29297 0.52344 0.4375 0.92188 0.4375z"/>
  </symbol>
  <symbol id="n" overflow="visible">
   <path d="m4.0312-1.2031c0.39453 0 0.69531-0.14453 0.90625-0.4375 0.21875-0.30078 0.32812-0.73438 0.32812-1.2969 0-0.55078-0.10938-0.97266-0.32812-1.2656-0.21094-0.30078-0.51172-0.45312-0.90625-0.45312-0.40625 0-0.71875 0.15234-0.9375 0.45312-0.21094 0.29297-0.3125 0.71484-0.3125 1.2656 0 0.5625 0.10156 0.99609 0.3125 1.2969 0.21875 0.29297 0.53125 0.4375 0.9375 0.4375zm-1.25-3.8125c0.25781-0.34375 0.54688-0.59375 0.85938-0.75 0.3125-0.16406 0.67188-0.25 1.0781-0.25 0.72656 0 1.3203 0.29297 1.7812 0.875 0.46875 0.57422 0.70312 1.3086 0.70312 2.2031 0 0.90625-0.23438 1.6523-0.70312 2.2344-0.46094 0.57422-1.0547 0.85938-1.7812 0.85938-0.40625 0-0.76562-0.078125-1.0781-0.23438-0.3125-0.16406-0.60156-0.42188-0.85938-0.76562v0.84375h-1.875v-8.1562h1.875z"/>
  </symbol>
  <symbol id="m" overflow="visible">
   <path d="m0.125-5.875h1.875l1.5781 3.9844 1.3438-3.9844h1.875l-2.4688 6.4375c-0.24219 0.64453-0.52734 1.0977-0.85938 1.3594-0.33594 0.25781-0.77344 0.39062-1.3125 0.39062h-1.0781v-1.2344h0.57812c0.32031 0 0.55469-0.054687 0.70312-0.15625 0.14453-0.09375 0.25391-0.27344 0.32812-0.53125l0.0625-0.17188z"/>
  </symbol>
  <symbol id="l" overflow="visible">
   <path d="m0.98438-7.8281h2.0156v7.0625c0 0.97656-0.26562 1.707-0.79688 2.1875-0.52344 0.48828-1.3203 0.73438-2.3906 0.73438h-0.42188v-1.5312h0.32812c0.41406 0 0.72656-0.12109 0.9375-0.35938 0.21875-0.23047 0.32812-0.57031 0.32812-1.0312z"/>
  </symbol>
  <symbol id="j" overflow="visible">
   <path d="m5.4844-5.6875v1.4219c-0.39844-0.16406-0.78125-0.28906-1.1562-0.375-0.375-0.082031-0.73047-0.125-1.0625-0.125-0.35547 0-0.62109 0.046875-0.79688 0.14062-0.16797 0.085938-0.25 0.21875-0.25 0.40625 0 0.14844 0.0625 0.26172 0.1875 0.34375 0.13281 0.085938 0.36719 0.14844 0.70312 0.1875l0.32812 0.046875c0.96875 0.11719 1.6133 0.3125 1.9375 0.59375 0.33203 0.28125 0.5 0.71875 0.5 1.3125 0 0.625-0.23047 1.1016-0.6875 1.4219-0.46094 0.3125-1.1484 0.46875-2.0625 0.46875-0.38672 0-0.78906-0.03125-1.2031-0.09375-0.41797-0.0625-0.84375-0.15625-1.2812-0.28125v-1.4219c0.375 0.17969 0.75781 0.3125 1.1562 0.40625 0.39453 0.09375 0.79688 0.14062 1.2031 0.14062 0.36328 0 0.63281-0.050781 0.8125-0.15625 0.1875-0.10156 0.28125-0.25391 0.28125-0.45312 0-0.16406-0.0625-0.28906-0.1875-0.375-0.125-0.082031-0.38281-0.14453-0.76562-0.1875l-0.32812-0.046875c-0.83594-0.10156-1.418-0.29688-1.75-0.57812-0.33594-0.28125-0.5-0.70703-0.5-1.2812 0-0.625 0.20703-1.0859 0.625-1.3906 0.42578-0.30078 1.082-0.45312 1.9688-0.45312 0.34375 0 0.70312 0.027344 1.0781 0.078125 0.38281 0.054688 0.80078 0.13672 1.25 0.25z"/>
  </symbol>
  <symbol id="i" overflow="visible">
   <path d="m6.3438-4.8906c0.23828-0.36328 0.51953-0.64062 0.84375-0.82812 0.32031-0.19531 0.67969-0.29688 1.0781-0.29688 0.67578 0 1.1914 0.21094 1.5469 0.625 0.35156 0.41797 0.53125 1.0234 0.53125 1.8125v3.5781h-1.8906v-3.0625-0.14062-0.20312c0-0.41406-0.0625-0.71875-0.1875-0.90625-0.11719-0.1875-0.30859-0.28125-0.57812-0.28125-0.35547 0-0.63281 0.14844-0.82812 0.4375-0.19922 0.29297-0.29688 0.71875-0.29688 1.2812v2.875h-1.8906v-3.0625c0-0.64453-0.058594-1.0625-0.17188-1.25-0.11719-0.1875-0.3125-0.28125-0.59375-0.28125-0.36719 0-0.64844 0.15234-0.84375 0.45312-0.1875 0.29297-0.28125 0.71094-0.28125 1.25v2.8906h-1.8906v-5.875h1.8906v0.85938c0.22656-0.33203 0.48828-0.58203 0.78125-0.75 0.30078-0.16406 0.63281-0.25 1-0.25 0.40625 0 0.75781 0.10156 1.0625 0.29688 0.3125 0.19922 0.55078 0.47656 0.71875 0.82812z"/>
  </symbol>
  <symbol id="f" overflow="visible">
   <path d="m0.90625-5.875h1.875v5.875h-1.875zm0-2.2812h1.875v1.5312h-1.875z"/>
  </symbol>
  <symbol id="e" overflow="visible">
   <path d="m6.7969-3.5781v3.5781h-1.875v-2.7344c0-0.50781-0.015625-0.85938-0.046875-1.0469-0.023438-0.19531-0.058594-0.33594-0.10938-0.42188-0.074219-0.125-0.17188-0.21875-0.29688-0.28125-0.125-0.070313-0.27344-0.10938-0.4375-0.10938-0.38672 0-0.69531 0.15234-0.92188 0.45312-0.21875 0.30469-0.32812 0.71875-0.32812 1.25v2.8906h-1.875v-5.875h1.875v0.85938c0.28125-0.34375 0.57812-0.59375 0.89062-0.75 0.32031-0.16406 0.67578-0.25 1.0625-0.25 0.67578 0 1.1875 0.21094 1.5312 0.625 0.35156 0.41797 0.53125 1.0234 0.53125 1.8125z"/>
  </symbol>
  <symbol id="h" overflow="visible">
   <path d="m6.7969-3.5781v3.5781h-1.875v-2.7188c0-0.51953-0.015625-0.875-0.046875-1.0625-0.023438-0.19531-0.058594-0.33594-0.10938-0.42188-0.074219-0.125-0.17188-0.21875-0.29688-0.28125-0.125-0.070313-0.27344-0.10938-0.4375-0.10938-0.38672 0-0.69531 0.15234-0.92188 0.45312-0.21875 0.30469-0.32812 0.71875-0.32812 1.25v2.8906h-1.875v-8.1562h1.875v3.1406c0.28125-0.34375 0.57812-0.59375 0.89062-0.75 0.32031-0.16406 0.67578-0.25 1.0625-0.25 0.67578 0 1.1875 0.21094 1.5312 0.625 0.35156 0.41797 0.53125 1.0234 0.53125 1.8125z"/>
  </symbol>
  <symbol id="u" overflow="visible">
   <path d="m4.7656-8.1562v1.2344h-1.0312c-0.27344 0-0.46094 0.046875-0.5625 0.14062-0.10547 0.09375-0.15625 0.26172-0.15625 0.5v0.40625h1.6094v1.3438h-1.6094v4.5312h-1.875v-4.5312h-0.9375v-1.3438h0.9375v-0.40625c0-0.63281 0.17578-1.1016 0.53125-1.4062 0.35156-0.3125 0.90625-0.46875 1.6562-0.46875z"/>
  </symbol>
  <symbol id="d" overflow="visible">
   <path d="m3.6875-4.6719c-0.40625 0-0.71875 0.15234-0.9375 0.45312-0.21875 0.29297-0.32812 0.71875-0.32812 1.2812s0.10938 0.99609 0.32812 1.2969c0.21875 0.30469 0.53125 0.45312 0.9375 0.45312 0.41406 0 0.72656-0.14844 0.9375-0.45312 0.21875-0.30078 0.32812-0.73438 0.32812-1.2969s-0.10938-0.98828-0.32812-1.2812c-0.21094-0.30078-0.52344-0.45312-0.9375-0.45312zm0-1.3438c1.0078 0 1.7969 0.27734 2.3594 0.82812 0.57031 0.54297 0.85938 1.293 0.85938 2.25 0 0.96875-0.28906 1.7305-0.85938 2.2812-0.5625 0.54297-1.3516 0.8125-2.3594 0.8125-1.0117 0-1.8047-0.26953-2.375-0.8125-0.5625-0.55078-0.84375-1.3125-0.84375-2.2812 0-0.95703 0.28125-1.707 0.84375-2.25 0.57031-0.55078 1.3633-0.82812 2.375-0.82812z"/>
  </symbol>
  <symbol id="t" overflow="visible">
   <path d="m0.98438-7.8281h2.25l2.8438 5.375v-5.375h1.9219v7.8281h-2.25l-2.8438-5.375v5.375h-1.9219z"/>
  </symbol>
  <symbol id="s" overflow="visible">
   <path d="m0.84375-2.2812v-3.5938h1.875v0.59375 1.2031 0.95312c0 0.46875 0.007812 0.80859 0.03125 1.0156 0.019531 0.21094 0.0625 0.35938 0.125 0.45312 0.082031 0.125 0.17969 0.22656 0.29688 0.29688 0.125 0.0625 0.26953 0.09375 0.4375 0.09375 0.38281 0 0.6875-0.14844 0.90625-0.45312 0.22656-0.30078 0.34375-0.71875 0.34375-1.25v-2.9062h1.875v5.875h-1.875v-0.84375c-0.28125 0.34375-0.58594 0.60156-0.90625 0.76562-0.3125 0.15625-0.65625 0.23438-1.0312 0.23438-0.67969 0-1.1953-0.20703-1.5469-0.625-0.35547-0.41406-0.53125-1.0195-0.53125-1.8125z"/>
  </symbol>
  <symbol id="r" overflow="visible">
   <path d="m0.98438-7.8281h3.3438c1 0 1.7656 0.22656 2.2969 0.67188 0.53125 0.4375 0.79688 1.0703 0.79688 1.8906 0 0.8125-0.26562 1.4453-0.79688 1.8906-0.53125 0.4375-1.2969 0.65625-2.2969 0.65625h-1.3281v2.7188h-2.0156zm2.0156 1.4688v2.1875h1.125c0.38281 0 0.67969-0.09375 0.89062-0.28125 0.21875-0.19531 0.32812-0.46875 0.32812-0.8125 0-0.35156-0.10938-0.625-0.32812-0.8125-0.21094-0.1875-0.50781-0.28125-0.89062-0.28125z"/>
  </symbol>
  <symbol id="q" overflow="visible">
   <path d="m0.90625-5.875h1.875v5.7656c0 0.78906-0.19531 1.3906-0.57812 1.7969-0.375 0.41406-0.91797 0.625-1.625 0.625h-0.9375v-1.2344h0.32812c0.35156 0 0.59766-0.078125 0.73438-0.23438 0.13281-0.15625 0.20312-0.47656 0.20312-0.95312zm0-2.2812h1.875v1.5312h-1.875z"/>
  </symbol>
  <symbol id="p" overflow="visible">
   <path d="m5.6406-5.6875v1.5312c-0.25-0.17578-0.50781-0.30469-0.76562-0.39062-0.26172-0.082031-0.52734-0.125-0.79688-0.125-0.52344 0-0.92969 0.15625-1.2188 0.46875-0.29297 0.30469-0.4375 0.72656-0.4375 1.2656 0 0.55469 0.14453 0.98438 0.4375 1.2969 0.28906 0.30469 0.69531 0.45312 1.2188 0.45312 0.28906 0 0.56641-0.039062 0.82812-0.125 0.26953-0.09375 0.51562-0.22266 0.73438-0.39062v1.5312c-0.29297 0.10547-0.58984 0.17969-0.89062 0.23438-0.30469 0.0625-0.60547 0.09375-0.90625 0.09375-1.0625 0-1.8906-0.26953-2.4844-0.8125-0.59375-0.55078-0.89062-1.3125-0.89062-2.2812 0-0.95703 0.29688-1.707 0.89062-2.25 0.59375-0.55078 1.4219-0.82812 2.4844-0.82812 0.30078 0 0.60156 0.03125 0.90625 0.09375 0.30078 0.054687 0.59766 0.13281 0.89062 0.23438z"/>
  </symbol>
 </defs>
 <g>
  <path d="m442.26 113.71c72.949 0 130.88 57.93 130.88 130.88 0 30.039-10.727 57.93-27.895 79.387 2.1445 6.4375 2.1445 10.727 2.1445 17.164 30.039 21.457 47.203 57.93 47.203 96.551 0 68.66-53.641 122.3-122.3 122.3h-354.02c-57.93 0-105.13-47.203-105.13-105.13 0-36.477 21.457-70.805 51.496-90.113 2.1445-32.184 17.164-60.078 42.91-79.387v-2.1445c0-85.824 70.805-156.63 156.63-156.63 32.184 0 60.078 10.727 85.824 25.746 23.602-23.602 55.785-38.621 92.262-38.621zm100.84-17.164c-8.582 17.164-34.328 2.1445-23.602-12.875l25.746-45.059c8.582-17.164 34.328-2.1445 25.746 12.875l-27.895 45.059zm60.078 70.805c-15.02 10.727-30.039-15.02-12.875-23.602l45.059-25.746c15.02-10.727 30.039 15.02 12.875 23.602zm17.164 92.262c-19.309 0-19.309-27.895 0-27.895h53.641c17.164 0 17.164 27.895 0 27.895zm-30.039 87.969c-17.164-10.727-2.1445-34.328 12.875-25.746l47.203 25.746c15.02 10.727 0 34.328-15.02 25.746zm-276.78-296.09c-8.582-15.02 17.164-30.039 25.746-12.875l25.746 45.059c8.582 15.02-15.02 30.039-23.602 12.875l-27.895-45.059zm113.71-36.477c0-19.309 30.039-19.309 30.039 0v51.496c0 19.309-30.039 19.309-30.039 0zm107.28 276.78c6.4375-12.875 10.727-30.039 10.727-47.203 0-55.785-45.059-102.99-102.99-102.99-27.895 0-51.496 10.727-70.805 27.895 17.164 15.02 30.039 34.328 38.621 55.785h12.875c47.203 0 90.113 27.895 111.57 66.512zm-439.85 90.113c-30.039 10.727-53.641 38.621-53.641 72.949 0 42.91 34.328 77.242 77.242 77.242h354.02c51.496 0 94.406-42.91 94.406-94.406 0-34.328-19.309-66.512-47.203-81.531v-4.293c0-53.641-42.91-98.699-96.551-98.699-10.727 0-21.457 2.1445-32.184 6.4375-12.875-60.078-64.367-102.99-126.59-102.99-70.805 0-128.73 55.785-128.73 126.59 0 6.4375 0 12.875 2.1445 19.309-25.746 10.727-42.91 34.328-42.91 64.367v15.02z" fill-rule="evenodd"/>
  <use x="13.140625" y="592.183594" xlink:href="#k"/>
  <use x="21.015625" y="592.183594" xlink:href="#c"/>
  <use x="26.304688" y="592.183594" xlink:href="#a"/>
  <use x="33.582031" y="592.183594" xlink:href="#g"/>
  <use x="40.820312" y="592.183594" xlink:href="#b"/>
  <use x="45.949219" y="592.183594" xlink:href="#a"/>
  <use x="53.226562" y="592.183594" xlink:href="#o"/>
  <use x="64.640625" y="592.183594" xlink:href="#n"/>
  <use x="72.320312" y="592.183594" xlink:href="#m"/>
  <use x="83.046875" y="592.183594" xlink:href="#l"/>
  <use x="87.039062" y="592.183594" xlink:href="#g"/>
  <use x="94.277344" y="592.183594" xlink:href="#j"/>
  <use x="100.664062" y="592.183594" xlink:href="#i"/>
  <use x="111.839844" y="592.183594" xlink:href="#f"/>
  <use x="115.519531" y="592.183594" xlink:href="#e"/>
  <use x="123.15625" y="592.183594" xlink:href="#a"/>
  <use x="134.167969" y="592.183594" xlink:href="#k"/>
  <use x="142.039062" y="592.183594" xlink:href="#h"/>
  <use x="149.675781" y="592.183594" xlink:href="#c"/>
  <use x="154.96875" y="592.183594" xlink:href="#f"/>
  <use x="158.644531" y="592.183594" xlink:href="#j"/>
  <use x="165.03125" y="592.183594" xlink:href="#b"/>
  <use x="170.160156" y="592.183594" xlink:href="#f"/>
  <use x="173.835938" y="592.183594" xlink:href="#e"/>
  <use x="181.472656" y="592.183594" xlink:href="#a"/>
  <use x="13.140625" y="602.910156" xlink:href="#u"/>
  <use x="17.808594" y="602.910156" xlink:href="#c"/>
  <use x="23.101562" y="602.910156" xlink:href="#d"/>
  <use x="30.46875" y="602.910156" xlink:href="#i"/>
  <use x="45.382812" y="602.910156" xlink:href="#b"/>
  <use x="50.511719" y="602.910156" xlink:href="#h"/>
  <use x="58.148438" y="602.910156" xlink:href="#a"/>
  <use x="69.160156" y="602.910156" xlink:href="#t"/>
  <use x="78.136719" y="602.910156" xlink:href="#d"/>
  <use x="85.507812" y="602.910156" xlink:href="#s"/>
  <use x="93.144531" y="602.910156" xlink:href="#e"/>
  <use x="104.519531" y="602.910156" xlink:href="#r"/>
  <use x="112.378906" y="602.910156" xlink:href="#c"/>
  <use x="117.671875" y="602.910156" xlink:href="#d"/>
  <use x="125.042969" y="602.910156" xlink:href="#q"/>
  <use x="128.71875" y="602.910156" xlink:href="#a"/>
  <use x="135.996094" y="602.910156" xlink:href="#p"/>
  <use x="142.355469" y="602.910156" xlink:href="#b"/>
 </g>
</svg>
