<?xml version="1.0" encoding="UTF-8"?>
<svg width="20pt" height="20pt" version="1.1" viewBox="0 0 700 700" xmlns="http://www.w3.org/2000/svg">
 <g fill="#010101">
  <path d="m555.62 126.88h-411.25c-4.832 0-8.75-3.918-8.75-8.75s3.918-8.75 8.75-8.75h411.25c4.832 0 8.75 3.918 8.75 8.75s-3.918 8.75-8.75 8.75z"/>
  <path d="m406.88 126.88h-122.5c-4.832 0-8.75-3.918-8.75-8.75 0-16.246 6.4531-31.824 17.941-43.309 11.484-11.488 27.062-17.941 43.309-17.941h17.5c16.246 0 31.824 6.4531 43.309 17.941 11.488 11.484 17.941 27.062 17.941 43.309 0 2.3203-0.92188 4.5469-2.5625 6.1875s-3.8672 2.5625-6.1875 2.5625zm-112.88-17.5h103.25c-2.0469-9.8672-7.4258-18.73-15.23-25.102-7.8086-6.375-17.566-9.8672-27.645-9.8984h-17.5c-10.078 0.03125-19.836 3.5234-27.645 9.8984-7.8047 6.3711-13.184 15.234-15.23 25.102z"/>
  <path d="m345.62 441.88c-4.832 0-8.75-3.918-8.75-8.75v-245c0-4.832 3.918-8.75 8.75-8.75s8.75 3.918 8.75 8.75v245c0 2.3203-0.92188 4.5469-2.5625 6.1875s-3.8672 2.5625-6.1875 2.5625z"/>
  <path d="m415.62 441.88c-4.7656-0.37109-8.3516-4.5039-8.0508-9.2734l17.5-245c0.46094-4.7227 4.5352-8.2617 9.2773-8.0508 4.7656 0.37109 8.3516 4.5039 8.0469 9.2734l-17.5 245c-0.37109 4.7656-4.5 8.3516-9.2734 8.0508z"/>
  <path d="m275.62 441.88c-4.5703 0.015625-8.3828-3.4922-8.75-8.0508l-17.5-245c-0.30078-4.7695 3.2852-8.9023 8.0508-9.2734 4.7383-0.21094 8.8125 3.3281 9.2734 8.0508l17.5 245c0.30078 4.7695-3.2812 8.9023-8.0508 9.2734z"/>
  <path d="m406.52 503.12h-122.5c-19.137-0.054688-37.602-7.0586-51.957-19.707-14.359-12.652-23.629-30.09-26.09-49.066l-35.875-280c-0.62109-4.7852 2.7422-9.168 7.5234-9.8008 4.7539-0.52344 9.0781 2.793 9.8008 7.5234l35.875 280c1.9492 14.738 9.1758 28.273 20.344 38.086 11.164 9.8164 25.512 15.25 40.379 15.289h122.5c14.844-0.035157 29.168-5.4414 40.332-15.223 11.164-9.7773 18.406-23.27 20.395-37.977l35.875-280c0.72266-4.7305 5.043-8.0469 9.8008-7.5234 4.7812 0.63281 8.1445 5.0156 7.5234 9.7969l-35.875 280c-2.5 18.949-11.789 36.344-26.141 48.957-14.355 12.617-32.797 19.598-51.91 19.645z"/>
 </g>
</svg>
